<svg width="43" height="43" viewBox="0 0 43 43" fill="none" xmlns="http://www.w3.org/2000/svg">
<g clip-path="url(#clip0_298_396)">
<path d="M40.9575 12.2819H38.9016V8.18344H36.8591V6.14094H34.8031V4.09844H30.7181V2.0425H26.6197V0H16.3803V2.0425H12.2819V4.09844H8.18344V6.14094H6.14094V8.18344H4.09844V12.2819H2.0425V16.3803H0V26.6197H2.0425V30.7181H4.09844V34.8031H6.14094V36.8591H8.18344V38.9016H12.2819V40.9575H16.3803V43H26.6197V40.9575H30.7181V38.9016H34.8031V36.8591H36.8591V34.8031H38.9016V30.7181H40.9575V26.6197H43V16.3803H40.9575V12.2819ZM26.6197 34.8031H24.5772V36.8591H18.4228V34.8031H16.3803V28.6622H18.4228V26.6197H24.5772V28.6622H26.6197V34.8031ZM32.7606 16.3803H30.7181V18.4228H28.6622V20.4788H26.6197V22.5212H24.5772V24.5772H18.4228V20.4788H20.4788V18.4228H22.5212V16.3803H24.5772V12.2819H22.5212V10.2394H18.4228V12.2819H16.3803V16.3803H10.2394V10.2394H12.2819V8.18344H14.3378V6.14094H16.3803V4.09844H26.6197V6.14094H28.6622V8.18344H30.7181V10.2394H32.7606V16.3803Z" fill="#FF8A00"/>
</g>
<defs>
<clipPath id="clip0_298_396">
<rect width="43" height="43" fill="white"/>
</clipPath>
</defs>
</svg>
