<svg width="48" height="48" viewBox="0 0 48 48" fill="none" xmlns="http://www.w3.org/2000/svg">
<g clip-path="url(#clip0_263_24)">
<path d="M45.72 15.99H31.995V18.285H29.715V20.565H27.435V22.845H25.14V6.855H27.435V2.28H25.14V0H22.86V2.28H20.565V6.855H18.285V11.43H16.005V15.99H2.28V18.285H0V20.565H2.28V22.845H4.575V25.14H9.15V27.42H11.43V31.995H13.71V29.715H18.285V27.42H22.86V29.715H20.565V31.995H18.285V34.275H16.005V36.57H13.71V38.85H11.43V41.145H9.15V43.425H6.855V41.145H4.575V45.705H6.855V48H11.43V45.705H13.71V43.425H18.285V41.145H20.565V38.85H22.86V36.57H25.14V29.715H27.435V31.995H29.715V34.275H31.995V36.57H34.29V38.85H36.57V41.145H38.85V45.705H36.57V48H41.145V45.705H43.425V41.145H41.145V36.57H38.85V31.995H36.57V27.42H38.85V25.14H34.29V27.42H25.14V25.14H31.995V22.845H34.29V20.565H43.425V22.845H45.72V20.565H48V18.285H45.72V15.99ZM20.565 25.14H16.005V22.845H11.43V20.565H6.855V18.285H18.285V20.565H20.565V25.14Z" fill="#FF8A00"/>
<path d="M43.425 22.845H38.85V25.14H43.425V22.845Z" fill="#FF8A00"/>
<path d="M36.57 43.425H34.29V45.705H36.57V43.425Z" fill="#FF8A00"/>
<path d="M34.29 41.145H29.715V43.425H34.29V41.145Z" fill="#FF8A00"/>
<path d="M31.995 11.4299H29.715V15.9899H31.995V11.4299Z" fill="#FF8A00"/>
<path d="M29.715 38.8501H27.435V41.1451H29.715V38.8501Z" fill="#FF8A00"/>
<path d="M29.715 6.85498H27.435V11.43H29.715V6.85498Z" fill="#FF8A00"/>
<path d="M27.435 36.5701H25.14V38.8501H27.435V36.5701Z" fill="#FF8A00"/>
<path d="M11.43 31.9951H9.14999V36.5701H11.43V31.9951Z" fill="#FF8A00"/>
<path d="M9.15001 36.5701H6.85501V41.1451H9.15001V36.5701Z" fill="#FF8A00"/>
</g>
<defs>
<clipPath id="clip0_263_24">
<rect width="48" height="48" fill="white"/>
</clipPath>
</defs>
</svg>
