<svg width="40" height="40" viewBox="0 0 40 40" fill="none" xmlns="http://www.w3.org/2000/svg">
<g clip-path="url(#clip0_298_234)">
<path d="M40.0001 15.2375H38.1001V24.7625H40.0001V15.2375Z" fill="#FF8A00"/>
<path d="M38.1 24.7625H36.1875V28.575H38.1V24.7625Z" fill="#FF8A00"/>
<path d="M38.1 11.425H36.1875V15.2375H38.1V11.425Z" fill="#FF8A00"/>
<path d="M36.1876 28.575H34.2876V32.3749H36.1876V28.575Z" fill="#FF8A00"/>
<path d="M36.1876 7.61255H34.2876V11.425H36.1876V7.61255Z" fill="#FF8A00"/>
<path d="M34.2875 32.375H32.375V34.2875H34.2875V32.375Z" fill="#FF8A00"/>
<path d="M34.2875 5.7124H32.375V7.6124H34.2875V5.7124Z" fill="#FF8A00"/>
<path d="M32.3749 34.2876H28.575V36.1876H32.3749V34.2876Z" fill="#FF8A00"/>
<path d="M32.3749 3.8125H28.575V5.7125H32.3749V3.8125Z" fill="#FF8A00"/>
<path d="M28.575 36.1875H24.7625V38.1H28.575V36.1875Z" fill="#FF8A00"/>
<path d="M26.6625 7.6124H24.7625V5.7124H15.2375V7.6124H13.3375V9.5249H11.425V15.2374H15.2375V11.4249H17.1375V9.5249H20.95V11.4249H22.8625V15.2374H20.95V17.1374H19.05V19.0499H17.1375V22.8624H22.8625V20.9499H24.7625V19.0499H26.6625V17.1374H28.575V9.5249H26.6625V7.6124Z" fill="#FF8A00"/>
<path d="M28.575 1.8999H24.7625V3.8124H28.575V1.8999Z" fill="#FF8A00"/>
<path d="M24.7625 38.1001H15.2375V40.0001H24.7625V38.1001Z" fill="#FF8A00"/>
<path d="M22.8626 24.7625H17.1375V26.6625H15.2375V32.375H17.1375V34.2875H22.8626V32.375H24.7625V26.6625H22.8626V24.7625Z" fill="#FF8A00"/>
<path d="M24.7625 0H15.2375V1.9H24.7625V0Z" fill="#FF8A00"/>
<path d="M15.2375 36.1875H11.425V38.1H15.2375V36.1875Z" fill="#FF8A00"/>
<path d="M15.2375 1.8999H11.425V3.8124H15.2375V1.8999Z" fill="#FF8A00"/>
<path d="M11.425 34.2876H7.61255V36.1876H11.425V34.2876Z" fill="#FF8A00"/>
<path d="M11.425 3.8125H7.61255V5.7125H11.425V3.8125Z" fill="#FF8A00"/>
<path d="M7.6124 32.375H5.7124V34.2875H7.6124V32.375Z" fill="#FF8A00"/>
<path d="M7.6124 5.7124H5.7124V7.6124H7.6124V5.7124Z" fill="#FF8A00"/>
<path d="M5.7125 28.575H3.8125V32.3749H5.7125V28.575Z" fill="#FF8A00"/>
<path d="M5.7125 7.61255H3.8125V11.425H5.7125V7.61255Z" fill="#FF8A00"/>
<path d="M3.8124 24.7625H1.8999V28.575H3.8124V24.7625Z" fill="#FF8A00"/>
<path d="M3.8124 11.425H1.8999V15.2375H3.8124V11.425Z" fill="#FF8A00"/>
<path d="M1.9 15.2375H0V24.7625H1.9V15.2375Z" fill="#FF8A00"/>
</g>
<defs>
<clipPath id="clip0_298_234">
<rect width="40" height="40" fill="white"/>
</clipPath>
</defs>
</svg>
