<svg width="40" height="40" viewBox="0 0 40 40" fill="none" xmlns="http://www.w3.org/2000/svg">
<g clip-path="url(#clip0_324_2372)">
<path d="M38.0875 5.7125H36.1875V3.8125H34.275V1.9H32.375V0H3.8V7.625H5.7125V9.525H7.6125V7.625H30.475V9.525H32.375V28.575H30.475V30.475H28.5625V32.375H3.8V30.475H1.9V32.375H0V40H1.9V34.2875H26.6625V40H40V7.625H38.0875V5.7125ZM7.6125 5.7125H5.7125V1.9H7.6125V5.7125ZM11.425 5.7125H9.5125V1.9H11.425V5.7125ZM28.5625 5.7125H13.325V1.9H28.5625V5.7125ZM38.0875 19.05H36.1875V9.525H34.275V7.625H32.375V5.7125H30.475V3.8125H32.375V5.7125H34.275V7.625H36.1875V9.525H38.0875V19.05Z" fill="#FF8A00"/>
<path d="M26.6625 19.05H24.75V20.95H26.6625V19.05Z" fill="#FF8A00"/>
<path d="M26.6625 28.575H20.95V30.4749H26.6625V28.575Z" fill="#FF8A00"/>
<path d="M24.7501 15.2375H22.8501V17.1375H24.7501V15.2375Z" fill="#FF8A00"/>
<path d="M24.7501 40V36.1875H19.0376V40H20.9501V38.1H22.8501V40H24.7501Z" fill="#FF8A00"/>
<path d="M24.75 20.95H17.1375V22.8625H24.75V20.95Z" fill="#FF8A00"/>
<path d="M19.0375 15.2375H17.1375V17.1375H19.0375V15.2375Z" fill="#FF8A00"/>
<path d="M17.1375 19.05H15.2375V20.95H17.1375V19.05Z" fill="#FF8A00"/>
<path d="M15.2375 28.575H13.325V30.4749H15.2375V28.575Z" fill="#FF8A00"/>
<path d="M30.475 26.6625V11.425H11.425V26.6625H30.475ZM13.325 13.3375H28.5625V24.7625H13.325V13.3375Z" fill="#FF8A00"/>
<path d="M11.425 28.575H9.51245V30.4749H11.425V28.575Z" fill="#FF8A00"/>
<path d="M9.51255 9.5249H7.61255V26.6624H9.51255V9.5249Z" fill="#FF8A00"/>
<path d="M7.6124 26.6626H5.7124V28.5751H7.6124V26.6626Z" fill="#FF8A00"/>
<path d="M5.71255 28.575H3.80005V30.4749H5.71255V28.575Z" fill="#FF8A00"/>
</g>
<defs>
<clipPath id="clip0_324_2372">
<rect width="40" height="40" fill="white"/>
</clipPath>
</defs>
</svg>
