<svg width="40" height="40" viewBox="0 0 40 40" fill="none" xmlns="http://www.w3.org/2000/svg">
<g clip-path="url(#clip0_265_212)">
<path d="M39.835 8.94751H37.7258V35.4765H39.835V8.94751Z" fill="#FA790F"/>
<path d="M37.7258 35.4763H33.5349V37.681H37.7258V35.4763Z" fill="#FA790F"/>
<path d="M33.5349 33.2573H29.3303V35.4765H33.5349V33.2573Z" fill="#FA790F"/>
<path d="M29.3303 31.0525H23.0302V33.2572H29.3303V31.0525Z" fill="#FA790F"/>
<path d="M31.4257 20H25.1256V22.2047H31.4257V20Z" fill="#FA790F"/>
<path d="M31.4257 13.3713H25.1256V15.576H31.4257V13.3713Z" fill="#FA790F"/>
<path d="M31.4257 6.74268H25.1256V8.94738H31.4257V6.74268Z" fill="#FA790F"/>
<path d="M33.5349 2.31885H23.0302V4.52355H33.5349V2.31885Z" fill="#FA790F"/>
<path d="M25.1256 15.5762H23.0302V17.7954H25.1256V15.5762Z" fill="#FA790F"/>
<path d="M25.1256 8.94751H23.0302V11.1667H25.1256V8.94751Z" fill="#FA790F"/>
<path d="M23.0302 4.52368H20.921V6.74289H23.0302V4.52368Z" fill="#FA790F"/>
<path d="M23.0302 33.2573H16.7301V35.4765H23.0302V33.2573Z" fill="#FA790F"/>
<path d="M18.8256 4.52368H16.7301V6.74289H18.8256V4.52368Z" fill="#FA790F"/>
<path d="M16.7301 31.0525H10.4163V33.2572H16.7301V31.0525Z" fill="#FA790F"/>
<path d="M16.7301 15.5762H14.6209V17.7954H16.7301V15.5762Z" fill="#FA790F"/>
<path d="M16.7301 8.94751H14.6209V11.1667H16.7301V8.94751Z" fill="#FA790F"/>
<path d="M14.6209 20H8.32086V22.2047H14.6209V20Z" fill="#FA790F"/>
<path d="M14.6209 13.3713H8.32086V15.576H14.6209V13.3713Z" fill="#FA790F"/>
<path d="M14.6209 6.74268H8.32086V8.94738H14.6209V6.74268Z" fill="#FA790F"/>
<path d="M16.7302 2.31885H6.22543V4.52355H16.7302V2.31885Z" fill="#FA790F"/>
<path d="M10.4163 33.2573H6.22543V35.4765H10.4163V33.2573Z" fill="#FA790F"/>
<path d="M16.7301 26.6287V24.424H10.4163V26.6287H6.22543V4.52368H4.11621V6.74289H2.02078V8.9476H4.11621V31.0527H10.4163V28.848H16.7301V31.0527H23.0302V28.848H29.3303V31.0527H35.6304V8.9476H37.7258V6.74289H35.6304V4.52368H33.5349V26.6287H29.3303V24.424H23.0302V26.6287H20.921V6.74289H18.8256V26.6287H16.7301Z" fill="#FA790F"/>
<path d="M6.22543 35.4763H2.02078V37.681H6.22543V35.4763Z" fill="#FA790F"/>
<path d="M2.02078 8.94751H-0.0884399V35.4765H2.02078V8.94751Z" fill="#FA790F"/>
</g>
<defs>
<clipPath id="clip0_265_212">
<rect width="40" height="40" fill="white"/>
</clipPath>
</defs>
</svg>
