<svg width="56" height="56" viewBox="0 0 56 56" fill="none" xmlns="http://www.w3.org/2000/svg">
<path d="M41.335 23.9924V21.3324H46.6725V13.3349H49.3325V32.0074H46.6725V23.9924H41.335Z" fill="#FF8A00"/>
<path d="M43.9949 7.99746H17.3424V10.6575H14.6649V7.99746H12.0049V-4.00543e-05H49.3324V7.99746H46.6724V13.335H43.9949V7.99746ZM43.9949 2.65996H38.6749V5.33746H43.9949V2.65996Z" fill="#FF8A00"/>
<path d="M46.6724 34.6675H43.9949V32.0075H46.6724V34.6675Z" fill="#FF8A00"/>
<path d="M38.675 23.9925H41.335V34.6675H43.995V37.3275H38.675V23.9925Z" fill="#FF8A00"/>
<path d="M38.6749 23.9926H33.3374V21.3326H38.6749V23.9926Z" fill="#FF8A00"/>
<path d="M27.9999 21.3325H20.0024V18.6725H27.9999V21.3325Z" fill="#FF8A00"/>
<path d="M22.6624 32.0075H20.0024V29.33H25.3399V37.3275H30.6774V29.33H25.3399V26.67H27.9999V21.3325H30.6774V23.9925H33.3374V37.3275H38.6749V40.005H25.3399V53.34H22.6624V32.0075Z" fill="#FF8A00"/>
<path d="M22.6625 56H17.3425V53.34H22.6625V56Z" fill="#FF8A00"/>
<path d="M20.0025 23.9926H17.3425V21.3326H20.0025V23.9926Z" fill="#FF8A00"/>
<path d="M20.0024 32.0075V34.6675H17.3424V53.34H14.6649V34.6675H12.0049V32.0075H20.0024Z" fill="#FF8A00"/>
<path d="M14.6649 13.335H12.0049V10.6575H14.6649V13.335Z" fill="#FF8A00"/>
<path d="M12.005 18.6725H9.34497V13.335H12.005V18.6725Z" fill="#FF8A00"/>
<path d="M12.005 32.0074H9.34497V29.3299H12.005V32.0074Z" fill="#FF8A00"/>
<path d="M9.34498 29.33H6.66748V18.6725H9.34498V29.33Z" fill="#FF8A00"/>
</svg>
