<svg width="55" height="50" viewBox="0 0 55 50" fill="none" xmlns="http://www.w3.org/2000/svg">
<g clip-path="url(#clip0_131_108)">
<path d="M52.1936 42.3487H49.5899V44.7113H36.5372V35.2919H33.9335V44.7113H26.1054V42.3487H23.4846V44.7113H5.2245V42.3487H2.60368V44.7113H0V47.0584H54.8144V44.7113H52.1936V42.3487Z" fill="#FF8A00"/>
<path d="M49.5899 37.6544H46.9862V42.3487H49.5899V37.6544Z" fill="#FF8A00"/>
<path d="M46.9862 32.9447H44.3654V37.6544H46.9862V32.9447Z" fill="#FF8A00"/>
<path d="M39.1409 30.5976V32.9447H44.3654V28.235H41.7617V30.5976H39.1409Z" fill="#FF8A00"/>
<path d="M39.1409 32.9447H36.5372V35.2918H39.1409V32.9447Z" fill="#FF8A00"/>
<path d="M23.4846 40.0016H18.2601V42.3487H23.4846V40.0016Z" fill="#FF8A00"/>
<path d="M23.4845 32.9447H20.8809V35.2918H23.4845V32.9447Z" fill="#FF8A00"/>
<path d="M20.8809 35.2919H18.2601V37.6544H20.8809V35.2919Z" fill="#FF8A00"/>
<path d="M18.2601 37.6544H10.4319V40.0015H18.2601V37.6544Z" fill="#FF8A00"/>
<path d="M26.1054 28.235V30.5976H23.4845V32.9447H26.1054V37.6544H28.709V32.9447H31.3127V30.5976H28.709V28.235H31.3127V30.5976H33.9335V28.235H41.7617V25.8879H28.709V18.8388H31.3127V16.4762H33.9335V14.1214H36.5372V7.06456H33.9335V4.70199H31.3127V2.35486H23.4845V4.70199H20.8809V7.06456H18.26V14.1214H20.8809V16.4685H23.4845V18.8388H26.1054V25.8956H13.0527V28.2428L26.1054 28.235ZM26.1054 7.06456H31.3127V11.7743H28.709V9.4194H26.1054V7.06456Z" fill="#FF8A00"/>
<path d="M13.0527 28.235H10.4319V32.9447H13.0527V28.235Z" fill="#FF8A00"/>
<path d="M10.4319 32.9447H7.82819V37.6544H10.4319V32.9447Z" fill="#FF8A00"/>
<path d="M7.82817 37.6544H5.22449V42.3487H7.82817V37.6544Z" fill="#FF8A00"/>
</g>
<defs>
<clipPath id="clip0_131_108">
<rect width="54.8144" height="49.4132" fill="white"/>
</clipPath>
</defs>
</svg>
