<svg width="44" height="49" viewBox="0 0 44 49" fill="none" xmlns="http://www.w3.org/2000/svg">
<g clip-path="url(#clip0_297_18)">
<path d="M43.6228 24.4076H41.5508V36.0281H43.6228V24.4076Z" fill="#FF8A00"/>
<path d="M43.6228 10.4539H41.5508V17.4384H43.6228V10.4539Z" fill="#FF8A00"/>
<path d="M41.5507 36.0281H39.465V38.3461H41.5507V36.0281Z" fill="#FF8A00"/>
<path d="M39.465 15.1051H37.3929V17.4384H35.3209V19.7564H33.2351V22.0744H31.1631V24.4076H29.091V26.7256H31.1631V29.0436H33.2351V26.7256H35.3209V24.4076H37.3929V22.0744H39.465V19.7564H41.5507V17.4384H39.465V15.1051Z" fill="#FF8A00"/>
<path d="M41.5507 8.13586H35.3209V10.4539H41.5507V8.13586Z" fill="#FF8A00"/>
<path d="M39.465 38.3461H4.15781V40.6641H39.465V38.3461Z" fill="#FF8A00"/>
<path d="M33.2351 8.13586H29.091V10.4539H33.2351V8.13586Z" fill="#FF8A00"/>
<path d="M24.9332 29.0436V22.0743H22.8475V31.3768H31.1631V29.0436H24.9332Z" fill="#FF8A00"/>
<path d="M27.0052 24.4076H29.091V22.0744H31.1631V19.7564H33.2351V17.4384H35.3209V15.1051H37.3929V12.7871H35.3209V10.4539H33.2351V12.7871H31.1631V15.1051H29.091V17.4384H27.0052V19.7564H24.9332V22.0744H27.0052V24.4076Z" fill="#FF8A00"/>
<path d="M29.091 10.4539H27.0052V12.7871H29.091V10.4539Z" fill="#FF8A00"/>
<path d="M27.0052 12.7871H24.9332V15.1051H27.0052V12.7871Z" fill="#FF8A00"/>
<path d="M22.8475 31.3769H20.7754V33.6949H22.8475V31.3769Z" fill="#FF8A00"/>
<path d="M16.6176 31.3769H14.5455V33.6949H16.6176V31.3769Z" fill="#FF8A00"/>
<path d="M10.3877 31.3769H8.3156V33.6949H10.3877V31.3769Z" fill="#FF8A00"/>
<path d="M22.8475 17.4384H4.15781V19.7564H22.8475V17.4384Z" fill="#FF8A00"/>
<path d="M4.15781 36.0281H2.08572V38.3461H4.15781V36.0281Z" fill="#FF8A00"/>
<path d="M4.15781 19.7563H2.08572V22.0743H4.15781V19.7563Z" fill="#FF8A00"/>
<path d="M2.08572 22.0743H0V36.0281H2.08572V22.0743Z" fill="#FF8A00"/>
</g>
<defs>
<clipPath id="clip0_297_18">
<rect width="43.6228" height="48.8" fill="white"/>
</clipPath>
</defs>
</svg>
