<svg width="56" height="56" viewBox="0 0 56 56" fill="none" xmlns="http://www.w3.org/2000/svg">
<g clip-path="url(#clip0_310_1020)">
<path d="M56 13.335H53.3225V26.67H56V13.335Z" fill="#1F0F28"/>
<path d="M53.3226 7.9975H50.6626V13.335H53.3226V7.9975Z" fill="#1F0F28"/>
<path d="M50.6624 5.33752H48.0024V7.99752H50.6624V5.33752Z" fill="#1F0F28"/>
<path d="M48.0025 15.995H45.325V23.9925H48.0025V15.995Z" fill="#1F0F28"/>
<path d="M48.0025 2.65997H42.665V5.33747H48.0025V2.65997Z" fill="#1F0F28"/>
<path d="M15.995 48.0025V50.6625H18.6725V48.0025H26.67V50.6625H29.33V48.0025H42.665V45.325H45.325V31.99H42.665V39.9875H2.66V15.995H0V45.325H2.66V48.0025H15.995Z" fill="#1F0F28"/>
<path d="M45.325 13.335H42.665V15.995H45.325V13.335Z" fill="#1F0F28"/>
<path d="M42.6649 10.6575H40.0049V13.335H42.6649V10.6575Z" fill="#1F0F28"/>
<path d="M42.6651 0H29.3301V2.66H42.6651V0Z" fill="#1F0F28"/>
<path d="M40.0049 18.655H37.3274V23.9925H40.0049V18.655Z" fill="#1F0F28"/>
<path d="M40.005 7.9975H31.99V10.6575H40.005V7.9975Z" fill="#1F0F28"/>
<path d="M37.3275 15.995H31.99V18.655H37.3275V15.995Z" fill="#1F0F28"/>
<path d="M37.3275 23.9925H31.99V26.67H37.3275V23.9925Z" fill="#1F0F28"/>
<path d="M31.9901 18.655H29.3301V23.9925H31.9901V18.655Z" fill="#1F0F28"/>
<path d="M15.995 53.3225V50.6625H13.335V56H31.99V50.6625H29.33V53.3225H15.995Z" fill="#1F0F28"/>
<path d="M26.6699 31.99H23.9924V34.6675H26.6699V31.99Z" fill="#1F0F28"/>
<path d="M23.9925 26.67H21.3325V29.33H23.9925V26.67Z" fill="#1F0F28"/>
<path d="M23.9925 34.6675H13.335V37.3275H23.9925V34.6675Z" fill="#1F0F28"/>
<path d="M15.995 26.67H13.335V29.33H15.995V26.67Z" fill="#1F0F28"/>
<path d="M13.335 31.99H10.6575V34.6675H13.335V31.99Z" fill="#1F0F28"/>
<path d="M23.9924 13.335H2.65991V15.995H23.9924V13.335Z" fill="#1F0F28"/>
</g>
<defs>
<clipPath id="clip0_310_1020">
<rect width="56" height="56" fill="white"/>
</clipPath>
</defs>
</svg>
